<svg width="16" height="16" viewBox="0 0 16 16" fill="none" xmlns="http://www.w3.org/2000/svg">
<path fill-rule="evenodd" clip-rule="evenodd" d="M11.5 6.99999C11.5 7.59093 11.3836 8.1761 11.1574 8.72206C10.9313 9.26803 10.5998 9.7641 10.182 10.182C9.76413 10.5998 9.26806 10.9313 8.72209 11.1575C8.17613 11.3836 7.59097 11.5 7.00002 11.5C6.40907 11.5 5.82391 11.3836 5.27794 11.1575C4.73198 10.9313 4.2359 10.5998 3.81804 10.182C3.40017 9.7641 3.06871 9.26803 2.84256 8.72206C2.61641 8.1761 2.50002 7.59093 2.50002 6.99999C2.50002 5.80651 2.97412 4.66192 3.81804 3.81801C4.66195 2.97409 5.80654 2.49999 7.00002 2.49999C8.19349 2.49999 9.33808 2.97409 10.182 3.81801C11.0259 4.66192 11.5 5.80651 11.5 6.99999ZM10.68 11.74C9.4744 12.676 7.95739 13.1173 6.43782 12.9741C4.91825 12.831 3.51036 12.1141 2.50077 10.9694C1.49117 9.8247 0.955774 8.33828 1.00355 6.81274C1.05134 5.28719 1.67872 3.83719 2.75797 2.75794C3.83723 1.67869 5.28722 1.05131 6.81277 1.00352C8.33832 0.955741 9.82473 1.49114 10.9694 2.50074C12.1141 3.51033 12.831 4.91822 12.9741 6.43779C13.1173 7.95735 12.676 9.47436 11.74 10.68L14.78 13.72C14.8537 13.7887 14.9128 13.8715 14.9538 13.9635C14.9948 14.0555 15.0168 14.1548 15.0186 14.2555C15.0204 14.3562 15.0018 14.4562 14.9641 14.5496C14.9264 14.643 14.8702 14.7278 14.799 14.799C14.7278 14.8703 14.643 14.9264 14.5496 14.9641C14.4562 15.0018 14.3562 15.0204 14.2555 15.0186C14.1548 15.0168 14.0554 14.9948 13.9635 14.9538C13.8715 14.9128 13.7887 14.8537 13.72 14.78L10.68 11.74Z" fill="#24292E"/>
</svg>
